<svg xmlns="http://www.w3.org/2000/svg" viewBox="0 0 960 600" fill="none"><defs><radialGradient id="bg"><stop stop-color="#34564e"/><stop offset="1" stop-color="#101c24"/></radialGradient><linearGradient id="cloth" x2="0" y2="1"><stop stop-color="#a8d5ae"/><stop offset="1" stop-color="#1d4544"/></linearGradient><linearGradient id="card" x2="1" y2="1"><stop stop-color="#455440"/><stop offset="1" stop-color="#192c2b"/></linearGradient><filter id="glow"><feGaussianBlur stdDeviation="14"/></filter></defs><path fill="url(#bg)" d="M0 0h960v600H0z"/><g stroke="#a8c7a1" opacity=".13"><circle cx="520" cy="270" r="210"/><circle cx="520" cy="270" r="190" stroke-dasharray="4 12"/><path d="m520 60 182 315H338zm0 420L338 165h364z"/></g><g fill="#142729" stroke="#accab8" stroke-opacity=".13"><path d="M40 440V180L100 100l60 80v260m-91 0V210h62v230M810 440V140l55-80 55 80v300m-80 0V170h52v270"/><path d="M180 440V210l55-67 55 67v230m405 0V210l45-65 45 65v230"/></g><circle cx="530" cy="244" r="91" fill="#d7d28b" opacity=".1" filter="url(#glow)"/><path d="m527 103 67 100-16 74 80 167H395l80-167-15-74z" fill="url(#cloth)" stroke="#b3d9b8" stroke-width="2"/><path d="m527 140 43 70-43 55-44-55z" fill="#102329" stroke="#739e8e"/><path d="m501 205 17 6m36-6-17 6" stroke="#e3f9cf" stroke-width="5"/><path d="m515 280-48 127h118l-47-127" fill="#173438"/><path d="m465 276-37 147m163-147 36 147" stroke="#c7d8a6" opacity=".5"/><path d="m396 239 20 208m-56-172 89-7" stroke="#c5aa72" stroke-width="7"/><circle cx="395" cy="233" r="17" fill="#f0d89d"/><circle cx="395" cy="233" r="35" fill="#f0d89d" opacity=".16" filter="url(#glow)"/><g transform="translate(692 256) rotate(17)"><rect width="120" height="172" rx="9" fill="url(#card)" stroke="#e2c18b" stroke-width="2"/><rect x="8" y="8" width="104" height="156" rx="5" stroke="#e2c18b" opacity=".25"/><path d="m60 37 10 27 28 10-28 10-10 28-10-28-28-10 28-10z" fill="#e2c18b"/><path d="M27 135h66m-56 9h46" stroke="#adc5ad"/></g><g transform="translate(213 244) rotate(-18)"><rect width="120" height="172" rx="9" fill="#1c3639" stroke="#8cbfb6" stroke-width="2"/><rect x="8" y="8" width="104" height="156" rx="5" stroke="#8cbfb6" opacity=".25"/><path d="m60 37 29 18v34l-29 23-29-23V55z" stroke="#b3dccc" stroke-width="4"/><path d="m46 72 11 10 21-25" stroke="#b3dccc" stroke-width="3"/><path d="M27 135h66m-56 9h46" stroke="#adc5ad"/></g><g fill="#ecd7a3"><circle cx="352" cy="147" r="2"/><circle cx="669" cy="123" r="2"/><circle cx="740" cy="211" r="1.5"/><circle cx="357" cy="362" r="1.5"/><circle cx="594" cy="80" r="2"/></g><text x="55" y="510" fill="#d9c393" font-family="system-ui,sans-serif" font-size="12" font-weight="700" letter-spacing="5">THREE REALMS. ONE LAST HAND.</text><text x="52" y="558" fill="#f3f1db" font-family="system-ui,sans-serif" font-size="44" font-weight="900" letter-spacing="-2">RELIC DOMINION</text></svg>
